# xmcd CD database file
#
# Track frame offsets:
#	150
#	26947
#	48346
#	66063
#	77116
#
# Disc length: 1344 seconds
#
# Revision: 0
# Processed by: cddbd v1.5.2PL0 Copyright (c) Steve Scherf et al.
# Submitted via: CDex 1.70beta2
#
DISCID=3c053e05
DTITLE=Think Big - So What!
DYEAR=2010
DGENRE=Jazz
TTITLE0=So What
TTITLE1=Anel Eyes
TTITLE2=Nature Boy
TTITLE3=I got Rhythm
TTITLE4=Moon over Burbon Street
EXTD=YEAR: 2010
EXTT0=
EXTT1=
EXTT2=
EXTT3=
EXTT4=
PLAYORDER=
